<svg width="162" height="35" viewBox="0 0 162 35" fill="none" xmlns="http://www.w3.org/2000/svg">
<path d="M11.2467 8.16406H15.2291L5.85307 27.4038H1.86328L11.2467 8.16406Z" fill="url(#paint0_linear)"/>
<path d="M20.6221 27.4062H24.6119L15.2359 8.16647H11.2461L20.6221 27.4062Z" fill="url(#paint1_linear)"/>
<path d="M13.8501 27.4062H17.8166L11.8557 15.0858H7.87109L13.8501 27.4062Z" fill="url(#paint2_linear)"/>
<path d="M28.1081 14.0933H32.7142V16.1958C33.4029 15.337 34.0997 14.7253 34.8045 14.3607C35.5094 13.988 36.3683 13.8016 37.381 13.8016C38.7503 13.8016 39.8198 14.2108 40.5895 15.0291C41.3673 15.8393 41.7562 17.0951 41.7562 18.7966V27H36.7855V19.9025C36.7855 19.0923 36.6356 18.5211 36.3358 18.1889C36.0361 17.8486 35.6148 17.6785 35.0719 17.6785C34.4724 17.6785 33.9862 17.9054 33.6135 18.3591C33.2408 18.8128 33.0545 19.6271 33.0545 20.8019V27H28.1081V14.0933ZM49.9649 18.274L45.2373 17.7757C45.4156 16.9493 45.6708 16.3011 46.003 15.8312C46.3433 15.3532 46.8294 14.94 47.4614 14.5916C47.9151 14.3404 48.539 14.146 49.333 14.0082C50.127 13.8705 50.9858 13.8016 51.9094 13.8016C53.3921 13.8016 54.5831 13.8867 55.4825 14.0568C56.3818 14.2189 57.1313 14.5632 57.7308 15.0899C58.1521 15.4545 58.4843 15.973 58.7274 16.6455C58.9704 17.3098 59.092 17.9459 59.092 18.5535V24.2534C59.092 24.861 59.1284 25.3391 59.2014 25.6875C59.2824 26.0277 59.4525 26.4653 59.7118 27H55.0693C54.8829 26.6678 54.7614 26.4166 54.7047 26.2465C54.648 26.0683 54.5912 25.7928 54.5345 25.4201C53.8864 26.0439 53.2422 26.4896 52.6022 26.7569C51.7271 27.1134 50.7103 27.2917 49.5517 27.2917C48.0123 27.2917 46.8416 26.9352 46.0394 26.2222C45.2454 25.5092 44.8484 24.6301 44.8484 23.585C44.8484 22.6046 45.1361 21.7984 45.7113 21.1665C46.2866 20.5345 47.3479 20.0646 48.8954 19.7567C50.7508 19.384 51.954 19.1247 52.5049 18.9789C53.0559 18.8249 53.6392 18.6264 54.255 18.3834C54.255 17.7757 54.1294 17.3504 53.8783 17.1073C53.6271 16.8642 53.1855 16.7427 52.5536 16.7427C51.7433 16.7427 51.1357 16.8723 50.7306 17.1316C50.4146 17.3342 50.1594 17.715 49.9649 18.274ZM54.255 20.8748C53.5744 21.1179 52.8655 21.3326 52.1282 21.5189C51.1235 21.7863 50.4875 22.0496 50.2201 22.3089C49.9447 22.5762 49.8069 22.8801 49.8069 23.2204C49.8069 23.6093 49.9406 23.9293 50.208 24.1805C50.4835 24.4235 50.8845 24.5451 51.4112 24.5451C51.9621 24.5451 52.4725 24.4114 52.9425 24.144C53.4205 23.8766 53.7567 23.5525 53.9512 23.1717C54.1537 22.7828 54.255 22.2805 54.255 21.6647V20.8748ZM62.9742 9.18341H67.9327V27H62.9742V9.18341ZM70.8427 14.0933H76.0685L78.7301 22.6856L81.1972 14.0933H86.0706L80.9541 27.8872C80.3708 29.459 79.7753 30.5204 79.1676 31.0713C78.3088 31.8491 77.0003 32.238 75.2421 32.238C74.5291 32.238 73.4272 32.1408 71.9365 31.9464L71.5476 28.4948C72.2605 28.7217 73.0546 28.8351 73.9296 28.8351C74.5129 28.8351 74.9829 28.7014 75.3394 28.4341C75.7039 28.1667 76.0118 27.6887 76.263 27L70.8427 14.0933ZM87.3642 23.427L92.2741 22.9651C92.4767 23.5485 92.7602 23.9658 93.1248 24.2169C93.4894 24.4681 93.9756 24.5937 94.5832 24.5937C95.2476 24.5937 95.7621 24.4519 96.1267 24.1683C96.4102 23.9576 96.552 23.6943 96.552 23.3783C96.552 23.0219 96.3657 22.7464 95.993 22.5519C95.7256 22.4142 95.0167 22.244 93.8662 22.0415C92.1485 21.7417 90.9535 21.4662 90.281 21.2151C89.6166 20.9558 89.0535 20.5223 88.5917 19.9147C88.138 19.307 87.9111 18.6143 87.9111 17.8365C87.9111 16.9858 88.1582 16.2525 88.6525 15.6368C89.1467 15.021 89.8273 14.5632 90.6942 14.2634C91.5611 13.9556 92.7238 13.8016 94.1822 13.8016C95.7216 13.8016 96.8559 13.9191 97.5851 14.1541C98.3223 14.389 98.9341 14.7536 99.4202 15.2479C99.9144 15.7421 100.324 16.4105 100.648 17.2531L95.9565 17.715C95.835 17.3017 95.6324 16.9979 95.3489 16.8035C94.96 16.5442 94.49 16.4146 93.9391 16.4146C93.38 16.4146 92.9709 16.5158 92.7116 16.7184C92.4605 16.9128 92.3349 17.1519 92.3349 17.4354C92.3349 17.7514 92.4969 17.9904 92.821 18.1525C93.1451 18.3145 93.85 18.4604 94.9357 18.59C96.5804 18.7763 97.8038 19.0356 98.6059 19.3678C99.408 19.7 100.02 20.174 100.441 20.7897C100.87 21.4055 101.085 22.082 101.085 22.8193C101.085 23.5647 100.858 24.2898 100.405 24.9947C99.959 25.6996 99.25 26.2627 98.2778 26.684C97.3136 27.0972 95.997 27.3038 94.328 27.3038C91.9703 27.3038 90.2891 26.9676 89.2844 26.2951C88.2879 25.6226 87.6478 24.6666 87.3642 23.427ZM110.169 9.18341V14.0933H112.891V17.7028H110.169V22.2846C110.169 22.8355 110.222 23.2001 110.327 23.3783C110.489 23.6538 110.773 23.7916 111.178 23.7916C111.542 23.7916 112.053 23.6862 112.709 23.4756L113.074 26.8906C111.85 27.158 110.708 27.2917 109.646 27.2917C108.415 27.2917 107.507 27.1337 106.924 26.8177C106.341 26.5017 105.907 26.0237 105.624 25.3836C105.348 24.7355 105.21 23.6903 105.21 22.2481V17.7028H103.387V14.0933H105.21V11.7234L110.169 9.18341ZM121.975 9.18341V14.0933H124.697V17.7028H121.975V22.2846C121.975 22.8355 122.028 23.2001 122.133 23.3783C122.295 23.6538 122.579 23.7916 122.984 23.7916C123.348 23.7916 123.859 23.6862 124.515 23.4756L124.88 26.8906C123.656 27.158 122.514 27.2917 121.452 27.2917C120.221 27.2917 119.314 27.1337 118.73 26.8177C118.147 26.5017 117.713 26.0237 117.43 25.3836C117.154 24.7355 117.017 23.6903 117.017 22.2481V17.7028H115.194V14.0933H117.017V11.7234L121.975 9.18341ZM127.826 22.0415H133.113V27H127.826V22.0415ZM141.358 18.274L136.63 17.7757C136.809 16.9493 137.064 16.3011 137.396 15.8312C137.736 15.3532 138.222 14.94 138.854 14.5916C139.308 14.3404 139.932 14.146 140.726 14.0082C141.52 13.8705 142.379 13.8016 143.302 13.8016C144.785 13.8016 145.976 13.8867 146.876 14.0568C147.775 14.2189 148.524 14.5632 149.124 15.0899C149.545 15.4545 149.877 15.973 150.12 16.6455C150.363 17.3098 150.485 17.9459 150.485 18.5535V24.2534C150.485 24.861 150.521 25.3391 150.594 25.6875C150.675 26.0277 150.846 26.4653 151.105 27H146.462C146.276 26.6678 146.154 26.4166 146.098 26.2465C146.041 26.0683 145.984 25.7928 145.928 25.4201C145.279 26.0439 144.635 26.4896 143.995 26.7569C143.12 27.1134 142.103 27.2917 140.945 27.2917C139.405 27.2917 138.235 26.9352 137.432 26.2222C136.638 25.5092 136.241 24.6301 136.241 23.585C136.241 22.6046 136.529 21.7984 137.104 21.1665C137.68 20.5345 138.741 20.0646 140.288 19.7567C142.144 19.384 143.347 19.1247 143.898 18.9789C144.449 18.8249 145.032 18.6264 145.648 18.3834C145.648 17.7757 145.522 17.3504 145.271 17.1073C145.02 16.8642 144.579 16.7427 143.947 16.7427C143.136 16.7427 142.529 16.8723 142.124 17.1316C141.808 17.3342 141.552 17.715 141.358 18.274ZM145.648 20.8748C144.967 21.1179 144.259 21.3326 143.521 21.5189C142.517 21.7863 141.881 22.0496 141.613 22.3089C141.338 22.5762 141.2 22.8801 141.2 23.2204C141.2 23.6093 141.334 23.9293 141.601 24.1805C141.877 24.4235 142.278 24.5451 142.804 24.5451C143.355 24.5451 143.866 24.4114 144.336 24.144C144.814 23.8766 145.15 23.5525 145.344 23.1717C145.547 22.7828 145.648 22.2805 145.648 21.6647V20.8748ZM154.379 9.18341H159.326V12.5498H154.379V9.18341ZM154.379 14.0933H159.326V27H154.379V14.0933Z" fill="black"/>
<defs>
<linearGradient id="paint0_linear" x1="4.08759" y1="27.8023" x2="15.4152" y2="12.481" gradientUnits="userSpaceOnUse">
<stop stop-color="#FF6464"/>
<stop offset="0.970911" stop-color="#CC0000"/>
</linearGradient>
<linearGradient id="paint1_linear" x1="19.4453" y1="28.6015" x2="18.4637" y2="6.81785" gradientUnits="userSpaceOnUse">
<stop offset="0.247139" stop-color="#F12C2C"/>
<stop offset="1" stop-color="#FF4A4A"/>
</linearGradient>
<linearGradient id="paint2_linear" x1="12.5773" y1="14.028" x2="11.0665" y2="18.2437" gradientUnits="userSpaceOnUse">
<stop stop-color="#D00000"/>
<stop offset="1" stop-color="#FB3E3E"/>
</linearGradient>
</defs>
</svg>
